<svg width="81" height="80" viewBox="0 0 81 80" fill="none" xmlns="http://www.w3.org/2000/svg">
<g clip-path="url(#clip0_922_50009)">
<path d="M50.5576 74.2868C54.0766 76.557 58.27 77.5464 62.4326 77.0885C66.5953 76.6306 70.4733 74.7534 73.4147 71.7725L75.9862 69.2582C77.1135 68.1051 77.7447 66.5565 77.7447 64.9439C77.7447 63.3313 77.1135 61.7827 75.9862 60.6296L65.0719 49.8296C63.9284 48.7059 62.3894 48.0762 60.7862 48.0762C59.183 48.0762 57.6439 48.7059 56.5004 49.8296V49.8296C55.3473 50.957 53.7988 51.5882 52.1862 51.5882C50.5735 51.5882 49.025 50.957 47.8719 49.8296L30.729 32.6868C30.1571 32.1232 29.703 31.4516 29.393 30.7109C29.0831 29.9703 28.9234 29.1754 28.9234 28.3725C28.9234 27.5696 29.0831 26.7747 29.393 26.0341C29.703 25.2934 30.1571 24.6218 30.729 24.0582V24.0582C31.8528 22.9148 32.4824 21.3757 32.4824 19.7725C32.4824 18.1693 31.8528 16.6302 30.729 15.4868L19.8719 4.62965C18.7188 3.50231 17.1702 2.87109 15.5576 2.87109C13.945 2.87109 12.3964 3.50231 11.2433 4.62965L8.72901 7.20108C5.74813 10.1425 3.87093 14.0205 3.41303 18.1832C2.95514 22.3458 3.94449 26.5392 6.21473 30.0582C18.0436 47.491 33.0944 62.503 50.5576 74.2868V74.2868Z" stroke="#191919" stroke-width="7.14286" stroke-linecap="round" stroke-linejoin="round"/>
</g>
<defs>
<clipPath id="clip0_922_50009">
<rect width="80" height="80" fill="white" transform="translate(0.5)"/>
</clipPath>
</defs>
</svg>
